<?xml version="1.0" encoding="utf-8"?>
<svg version="1.1" id="Layer_1" xmlns="http://www.w3.org/2000/svg" xmlns:xlink="http://www.w3.org/1999/xlink" x="0px" y="0px"
	 viewBox="0 0 512 85" style="enable-background:new 0 0 512 85;" xml:space="preserve">
<style type="text/css">
	.st0{fill:#4A4A4A;}
	.st1{fill:url(#SVGID_1_);}
</style>
<g>
	<path class="st0" d="M32.8,1.9h16.3v56.7c0,8-2.3,14.3-6.9,19s-10.4,7-17.5,7c-7.6,0-13.6-2.1-18-6.3S0.1,68.1,0.3,59.9l0.2-0.3
		h15.9c0,4.3,0.8,7.4,2.3,9.4c1.6,2,3.6,3,6,3c2.2,0,4.1-1.2,5.7-3.5s2.4-5.6,2.4-9.8V1.9z M94.3,66.2H72.3l-4.5,17.3H51.3L74.9,1.9
		h17l23.5,81.6H98.9L94.3,66.2z M75.6,53.4H91l-7.5-28.9h-0.3L75.6,53.4z M139.1,1.9l15,59.9h0.3l15.2-59.9H191v81.6h-16.3V59.8
		l1.4-31.7l-0.3-0.1l-16,55.5h-10.9l-15.8-55l-0.3,0.1l1.4,31.3v23.7h-16.3V1.9H139.1z M255,64c0-5.1-1.9-9.2-5.8-12.3
		c-3.9-3.1-10.5-5.9-20-8.4c-9.5-2.5-16.5-5.4-21-8.5c-4.4-3.2-6.6-7.9-6.6-14c0-6.1,2.6-10.9,7.8-14.6c5.2-3.6,11.9-5.4,20-5.4
		c8.2,0,14.8,2.2,20,6.7c5.2,4.4,7.7,10.2,7.5,17.1l-0.1,0.3h-2.6c0-6.1-2.3-11.1-6.9-15.1s-10.6-6-17.9-6c-7.6,0-13.6,1.7-18,5
		c-4.4,3.3-6.6,7.3-6.6,11.9s1.8,8.5,5.5,11.5c3.7,3.1,10.3,5.8,19.9,8.2c9.3,2.4,16.3,5.3,21,8.8s7.1,8.4,7.1,14.7
		c0,6.5-2.7,11.6-8.1,15.3c-5.4,3.7-12.2,5.6-20.3,5.6c-8.4,0-15.6-1.9-21.7-5.7c-6.1-3.8-9-9.9-8.8-18.1l0.1-0.3h2.6
		c0,7.4,2.8,12.8,8.4,16.1c5.6,3.3,12.1,5,19.4,5c7.4,0,13.4-1.6,18.1-4.9C252.7,73.5,255,69.2,255,64L255,64z M318.3,13.3
		c0,0.4-0.2,0.8-0.5,1.1c-0.3,0.3-0.7,0.5-1.1,0.5h-24.3v67c0,0.4-0.2,0.8-0.5,1.1s-0.7,0.5-1.2,0.5c-0.4,0-0.8-0.1-1.2-0.4
		c-0.3-0.3-0.5-0.6-0.5-1.1v-67h-24.4c-0.4,0-0.8-0.2-1.1-0.5c-0.3-0.3-0.5-0.7-0.5-1.1s0.1-0.8,0.4-1.2c0.3-0.4,0.7-0.6,1.2-0.6h52
		c0.5,0,0.9,0.2,1.2,0.6C318.1,12.5,318.3,12.9,318.3,13.3L318.3,13.3z M365.8,59.1h-40.9l-9.3,24.4h-3.4l31.3-81.6h3.8l31.3,81.6
		h-3.4L365.8,59.1z M326,56.1h38.6l-17.5-45.9l-1.6-4.6h-0.3l-1.6,4.6L326,56.1z M439.8,58.5l0.1,0.3c0.2,8.4-2.4,14.8-7.8,19.2
		c-5.3,4.4-12.4,6.6-21.1,6.6c-9.2,0-16.5-3.3-22-9.9c-5.5-6.6-8.3-15.2-8.3-26V36.6c0-10.7,2.8-19.3,8.3-25.9
		c5.5-6.6,12.9-9.9,22-9.9c8.7,0,15.8,2.2,21.1,6.7c5.3,4.4,7.9,10.8,7.8,19l-0.1,0.3h-2.6c0-7.4-2.3-13-7-17s-11.1-6-19.1-6
		c-8.2,0-14.7,3-19.7,9s-7.5,13.9-7.5,23.7v12.3c0,9.9,2.5,17.8,7.5,23.8s11.6,9,19.7,9c8.1,0,14.4-1.9,19.1-5.8s7-9.6,7-17.4H439.8
		z M468.7,43.7h-12.8v39.8h-3.1V1.9h3.1v38.8h13.7l35.5-38.8h3.7l0.1,0.3l-36.7,40.4l39.4,40.6l-0.2,0.3h-3.6L468.7,43.7z"/>

		<linearGradient id="SVGID_1_" gradientUnits="userSpaceOnUse" x1="-689.6417" y1="420.6404" x2="-689.6386" y2="419.6404" gradientTransform="matrix(54.6663 0 0 -3.0611 37990.4648 1289.5133)">
		<stop  offset="0" style="stop-color:#20C6B7"/>
		<stop  offset="1" style="stop-color:#4D9ABF"/>
	</linearGradient>
	<path class="st1" d="M317.7,3.4c0,0.4-0.2,0.8-0.5,1.1c-0.3,0.3-0.7,0.5-1.1,0.5h-51.5c-0.4,0-0.8-0.2-1.1-0.5
		c-0.3-0.3-0.5-0.7-0.5-1.1s0.2-0.8,0.5-1.1s0.7-0.5,1.1-0.5h51.5c0.4,0,0.8,0.2,1.1,0.5S317.7,3,317.7,3.4L317.7,3.4z"/>
</g>
</svg>
