<?xml version="1.0" encoding="utf-8"?>
<svg version="1.1" id="Layer_1" xmlns="http://www.w3.org/2000/svg" xmlns:xlink="http://www.w3.org/1999/xlink" x="0px" y="0px"
	 viewBox="0 0 116 116" style="enable-background:new 0 0 116 116;" xml:space="preserve">
<style type="text/css">
	.st0{fill-rule:evenodd;clip-rule:evenodd;fill:#21609B;}
</style>
<g>
	<g>
		<g transform="translate(0.000000, 8.827586)">
			<path class="st0" d="M99.8,67.4l-0.4,1C92.8,81.3,81,89.2,64.3,89.6c-7.8,0.2-15.3-1.8-20.1-4C33.6,80.8,24.8,72.1,20,62.7
				c-6.9-13.4-8.2-32.1,6.2-46c0.2,0-1.7,3-1.5,3L24.3,21C13.9,53.5,45.9,81.4,76.9,78.2C84.4,77.4,93.9,73.3,99.8,67.4"/>
			<path class="st0" d="M81,54c7.8,0.1,16-3.6,20.8-8.7C97.6,56,85.3,62.9,68.9,60.7C55.1,58.9,42,45,40.7,31.2
				C39.7,21.1,43.2,15,49,7.7c-2,3.8-2.8,6.8-3,8.6C43.8,38.2,63.5,53.9,81,54"/>
			<path class="st0" d="M101,26.9c-1.2,2.8-8.2,8.1-11.3,8.7c-12.2,2.6-20.1-3.2-24.2-9.8c-0.6-1-1.7-3.7-1.9-4.4
				C62,16,62.7,7.8,67.5,3.6c-1.4,4-1.6,8.7-0.9,11.8c0.5,1.8,1.8,5.1,3.2,7.1c2.5,3.7,4.1,4.6,7.4,6.5c1.5,0.9,3,1.6,3.7,1.8
				C84,31.6,90.5,34,101,26.9"/>
		</g>
	</g>
</g>
</svg>
