<?xml version="1.0" encoding="utf-8"?>
<svg version="1.1" id="Layer_1" xmlns="http://www.w3.org/2000/svg" xmlns:xlink="http://www.w3.org/1999/xlink" x="0px" y="0px"
	 viewBox="0 0 286 256" style="enable-background:new 0 0 286 256;" xml:space="preserve">
<style type="text/css">
	.st0{fill-rule:evenodd;clip-rule:evenodd;fill:url(#SVGID_1_);}
	.st1{fill:none;}
	.st2{filter:url(#Adobe_OpacityMaskFilter);}
	.st3{fill-rule:evenodd;clip-rule:evenodd;fill:#FFFFFF;}
	.st4{mask:url(#mask-5_1_);fill-rule:evenodd;clip-rule:evenodd;fill:#FAF9F8;}
	.st5{filter:url(#Adobe_OpacityMaskFilter_1_);}
	.st6{mask:url(#mask-5_2_);fill-rule:evenodd;clip-rule:evenodd;fill:#FAF9F8;}
	.st7{filter:url(#Adobe_OpacityMaskFilter_2_);}
	.st8{mask:url(#mask-5_3_);fill-rule:evenodd;clip-rule:evenodd;fill:#FAF9F8;}
	.st9{filter:url(#Adobe_OpacityMaskFilter_3_);}
	.st10{mask:url(#mask-5_4_);fill-rule:evenodd;clip-rule:evenodd;fill:#FAF9F8;}
	.st11{filter:url(#Adobe_OpacityMaskFilter_4_);}
	.st12{mask:url(#mask-5_5_);fill-rule:evenodd;clip-rule:evenodd;fill:#FAF9F8;}
</style>
<linearGradient id="SVGID_1_" gradientUnits="userSpaceOnUse" x1="143" y1="0" x2="143" y2="255.58">
	<stop  offset="0" style="stop-color:#2E4F82"/>
	<stop  offset="1" style="stop-color:#182E4D"/>
</linearGradient>
<path class="st0" d="M256.2,255.6H29.8C13.3,255.6,0,242.3,0,225.8V29.8C0,13.3,13.3,0,29.8,0h226.5C272.7,0,286,13.3,286,29.8
	v196.1C286,242.3,272.7,255.6,256.2,255.6z"/>
<g>
	<g transform="translate(16.000000, 0.000000)">
		<g>
			<path class="st1" d="M-0.9,73.5H255V183H-0.9"/>
		</g>
		<defs>
			<filter id="Adobe_OpacityMaskFilter" filterUnits="userSpaceOnUse" x="221" y="73.5" width="34" height="109.5">
				<feColorMatrix  type="matrix" values="1 0 0 0 0  0 1 0 0 0  0 0 1 0 0  0 0 0 1 0"/>
			</filter>
		</defs>
		<mask maskUnits="userSpaceOnUse" x="221" y="73.5" width="34" height="109.5" id="mask-5_1_">
			<g class="st2">
				<path id="path-4_1_" class="st3" d="M-0.9,73.5H255V183H-0.9"/>
			</g>
		</mask>
		<path class="st4" d="M244.1,113.4c0-8.2,1.3-13,1.3-21.9c0-13.7-5-18.1-16.2-18.1H221v9.7h2.5c5.7,0,6.9,1.9,6.9,8.8
			c0,6.5-0.6,13-0.6,20.6c0,9.7,3.2,13.5,9.5,14.9v0.6c-6.3,1.5-9.5,5.3-9.5,14.9c0,7.6,0.6,13.7,0.6,20.6c0,7.1-1.5,9-6.9,9v0.2
			H221V183h8.2c11.1,0,16.2-4.4,16.2-18.1c0-9-1.3-13.7-1.3-21.9c0-4.4,2.7-9,10.9-9.5v-10.9C246.8,122.5,244.1,117.8,244.1,113.4"
			/>
		<defs>
			<filter id="Adobe_OpacityMaskFilter_1_" filterUnits="userSpaceOnUse" x="118.4" y="98.9" width="49.8" height="66.8">
				<feColorMatrix  type="matrix" values="1 0 0 0 0  0 1 0 0 0  0 0 1 0 0  0 0 0 1 0"/>
			</filter>
		</defs>
		<mask maskUnits="userSpaceOnUse" x="118.4" y="98.9" width="49.8" height="66.8" id="mask-5_2_">
			<g class="st5">
				<path id="path-4_2_" class="st3" d="M-0.9,73.5H255V183H-0.9"/>
			</g>
		</mask>
		<path class="st6" d="M151,126.3c-6.5-2.5-12.4-4-12.4-8.2c0-3.2,2.5-5,7.1-5c4.6,0,8.8,1.9,13.5,5.3l8.4-11.1
			c-5.3-4-12.4-8.2-22.1-8.2c-14.3,0-24,8.2-24,19.8c0,10.3,9,15.6,16.6,18.5c6.5,2.5,12.8,4.6,12.8,8.8c0,3.2-2.5,5.3-8.2,5.3
			c-5.3,0-10.5-2.1-16.2-6.5l-8.2,12.2c6.3,5.3,16,8.8,24,8.8c16.8,0,25.9-8.8,25.9-20.4C168.2,133.8,159.2,129,151,126.3"/>
		<defs>
			<filter id="Adobe_OpacityMaskFilter_2_" filterUnits="userSpaceOnUse" x="169.2" y="98.9" width="49.8" height="66.8">
				<feColorMatrix  type="matrix" values="1 0 0 0 0  0 1 0 0 0  0 0 1 0 0  0 0 0 1 0"/>
			</filter>
		</defs>
		<mask maskUnits="userSpaceOnUse" x="169.2" y="98.9" width="49.8" height="66.8" id="mask-5_3_">
			<g class="st7">
				<path id="path-4_3_" class="st3" d="M-0.9,73.5H255V183H-0.9"/>
			</g>
		</mask>
		<path class="st8" d="M201.8,126.3c-6.3-2.5-12.2-4-12.2-8.2c0-3.2,2.5-5,7.1-5c4.6,0,8.8,1.9,13.5,5.3l8.4-11.1
			c-5.3-4-12.4-8.2-22.1-8.2c-14.3,0-24,8.2-24,19.8c0,10.3,9,15.6,16.6,18.5c6.5,2.5,12.8,4.6,12.8,8.8c0,3.2-2.5,5.3-8.2,5.3
			c-5.3,0-10.5-2.1-16.2-6.5l-8.4,12.2c6.3,5.3,16,8.8,24,8.8c16.8,0,25.9-8.8,25.9-20.4C219.1,133.8,210,129,201.8,126.3"/>
		<defs>
			<filter id="Adobe_OpacityMaskFilter_3_" filterUnits="userSpaceOnUse" x="59.3" y="98.7" width="56.3" height="66">
				<feColorMatrix  type="matrix" values="1 0 0 0 0  0 1 0 0 0  0 0 1 0 0  0 0 0 1 0"/>
			</filter>
		</defs>
		<mask maskUnits="userSpaceOnUse" x="59.3" y="98.7" width="56.3" height="66" id="mask-5_4_">
			<g class="st9">
				<path id="path-4_4_" class="st3" d="M-0.9,73.5H255V183H-0.9"/>
			</g>
		</mask>
		<path class="st10" d="M77,125.2c1.3-8.4,6.3-12.4,12.2-12.4c7.6,0,10.5,5.3,10.5,12.4H77L77,125.2z M115.7,129
			c0.2-17-9-30.3-26.7-30.3c-15.3,0-30.1,12.8-29.6,33c0,20.8,13.7,33,31.7,33c7.6,0,16-2.7,22.5-7.1l-6.3-11.1c-4.6,2.7-9,4-13.7,4
			c-8.4,0-14.9-4-16.6-13.7h38C115.2,135.3,115.7,132.3,115.7,129L115.7,129z"/>
		<defs>
			<filter id="Adobe_OpacityMaskFilter_4_" filterUnits="userSpaceOnUse" x="-1" y="73.5" width="63.9" height="109.1">
				<feColorMatrix  type="matrix" values="1 0 0 0 0  0 1 0 0 0  0 0 1 0 0  0 0 0 1 0"/>
			</filter>
		</defs>
		<mask maskUnits="userSpaceOnUse" x="-1" y="73.5" width="63.9" height="109.1" id="mask-5_5_">
			<g class="st11">
				<path id="path-4_5_" class="st3" d="M-0.9,73.5H255V183H-0.9"/>
			</g>
		</mask>
		<path class="st12" d="M58.3,150c-1.5,0-3.4-1.3-3.4-5.3V73.5H25.1c-11.3,0-16.4,4.4-16.4,18.1c0,9,1.3,14.1,1.3,21.9
			c0,4.4-2.7,9-10.9,9.5v10.9c8.2,0.2,10.9,4.8,10.9,9.2c0,7.8-1.3,12.4-1.3,21.4c0,13.7,5,18.1,16.2,18.1H33v-9.7h-2.5
			c-5.3,0-6.9-2.1-6.9-9c0-6.9,0.6-12.8,0.6-20.6c0-9.7-3.2-13.5-9.5-14.9v-0.6c6.3-1.5,9.5-5.3,9.5-14.9c0-7.6-0.6-13.7-0.6-20.6
			c0-6.9,1.5-8.8,6.9-8.8h5.7v60.3c0,12.8,4.4,21.2,17.2,21.2c4,0,7.1-0.6,9.5-1.5l-2.1-13.7C59.5,150,58.9,150,58.3,150"/>
	</g>
</g>
</svg>
