<?xml version="1.0" encoding="utf-8"?>
<!-- Generator: Adobe Illustrator 23.0.4, SVG Export Plug-In . SVG Version: 6.00 Build 0)  -->
<svg version="1.1" id="Layer_1" xmlns="http://www.w3.org/2000/svg" xmlns:xlink="http://www.w3.org/1999/xlink" x="0px" y="0px"
	 viewBox="0 0 256 279" style="enable-background:new 0 0 256 279;" xml:space="preserve">
<style type="text/css">
	.st0{fill:#0F5B7A;}
</style>
<g>
	<path class="st0" d="M242.6,40.7c-0.8-21.5-19.7-26-19.7-26s-65.5-9.9-94.2-13.5c-28.7-3.6-26.9,24.2-26.9,24.2
		s6.5,202.8,7.2,227.9c0.8,29.9,28.7,25.1,28.7,25.1l98.7-17.1c17.9-3.6,18.8-26,18.8-26S243.5,64.1,242.6,40.7
		C241.7,19.2,243.5,64.1,242.6,40.7L242.6,40.7L242.6,40.7z M220.5,212.9l-73.4,7.6c0,0-21.4,3.3-21.9-22.7
		c-0.4-19.1-4.6-128.7-4.6-128.7s-1.5-20.1,20.5-18.4c22.5,1.7,76.2,5.8,76.2,5.8s14.4,3.4,15,19.8c0.7,17.8,6.9,116.9,6.9,116.9
		S241,209.4,220.5,212.9L220.5,212.9L220.5,212.9z"/>
	<path class="st0" d="M40.8,183.4l-13.6,1c0,0-13.7,1.9-14-13.1c-0.2-11-1.6-73.6-1.6-73.6S10.7,86,24.8,86.9
		c3.6,0.2,8.6,0.6,14.2,0.9c-0.2-10.4-0.4-19.5-0.5-26.4c-7.7-0.6-15-1.2-20.2-1.8c-18.6-2-17.4,13.6-17.4,13.6s2.2,114.8,2.7,128.9
		c0.5,16.8,18.6,14.1,18.6,14.1l19.3-2.1C41.2,205.8,41,195.2,40.8,183.4L40.8,183.4L40.8,183.4z"/>
	<path class="st0" d="M94.7,79c-0.1-1.5-0.3-2.8-0.7-4c-5.9-0.5-20.8-4.4-25.6,0.7c-3,3.2-1.8,9.9-1.7,13.7
		c6.4,0.4,10.8,0.6,10.8,0.6s9.2,2,9.6,11.4c0.4,10.3,0.4,68,0.4,68s1,9.4-12,11.4l-6.9,0.5c0,2,0.1,3.7,0.1,4.9
		c0.3,16.4,17.8,11.2,28.8,10.1c0.9-17.4-0.7-35.4-1.1-52.9C95.9,122,95.7,100.5,94.7,79C94.7,77.5,95.3,92.1,94.7,79L94.7,79
		L94.7,79z"/>
	<path class="st0" d="M100.4,203.1L80.6,205c0,0-18.4,2.6-18.8-18.6c-0.3-15.7-2.1-104.6-2.1-104.6s-1.3-16.4,17.6-15.1
		c4.9,0.3,11.5,0.9,18.8,1.5c-0.5-17.1-1-30.5-1.2-37.4c-10-1-19.4-2-26.3-2.8c-25-2.8-23.4,19.3-23.4,19.3s3,163,3.6,182.9
		c0.7,23.8,25,20,25,20l28-3.6C101.5,237.4,101,221.8,100.4,203.1L100.4,203.1L100.4,203.1z"/>
	<path class="st0" d="M140.6,57.6c-3.5-0.3-7.8,0-10.3,2.7c-2.7,2.9-2.8,6.9-2.6,10.6c9.9,0.9,17.1,1.5,17.1,1.5s12.4,2.8,13,16.2
		c0.6,14.6,4.1,94,4.1,94s1.4,13.3-16.2,16.2l-13.3,1.3c1.8,20.8,28.7,12,42.5,10.6c-1.4-31.4-5.8-128.3-6.8-151.1
		C157.6,58.8,147.6,58,140.6,57.6C140,57.5,147.6,58,140.6,57.6L140.6,57.6L140.6,57.6z"/>
</g>
</svg>
