<?xml version="1.0" encoding="utf-8"?>
<svg version="1.1" id="Layer_1" xmlns="http://www.w3.org/2000/svg" xmlns:xlink="http://www.w3.org/1999/xlink" x="0px" y="0px"
	 viewBox="0 0 256 137" enable-background="new 0 0 256 137" xml:space="preserve">
<g>
	<path fill="#005A9C" d="M67.7,1.6L91.9,84l24.2-82.4h17.5L93.5,136.9h-1.7L66.8,53.1l-25.1,83.8h-1.7L0,1.6h17.5L41.8,84l16.4-55.5
		l-8-26.9L67.7,1.6L67.7,1.6z"/>
	<path fill="#005A9C" d="M183.4,93.5c0,12.3-3.3,22.6-9.8,30.9c-6.5,8.3-15,12.5-25.3,12.5c-7.8,0-14.6-2.5-20.4-7.4
		c-5.8-5-10.1-11.7-12.9-20.1l13.7-5.7c2,5.1,4.7,9.2,7.9,12.1c3.3,2.9,7.1,4.4,11.6,4.4c4.7,0,8.6-2.6,11.9-7.9
		c3.2-5.2,4.8-11.5,4.8-18.9c0-8.1-1.7-14.4-5.2-18.9c-4-5.2-10.3-7.9-18.9-7.9h-6.7v-8l23.4-40.4h-28.2l-7.9,13.4h-5V1.6h65.1v8.2
		L157,52.4c8.7,2.8,15.3,7.9,19.7,15.2C181.2,74.9,183.4,83.6,183.4,93.5L183.4,93.5z"/>
	<path fill="#221B0A" d="M251.4,0.9l2.8,17.3l-10.1,19.2c0,0-3.9-8.2-10.3-12.7c-5.4-3.8-8.9-4.6-14.4-3.5
		c-7.1,1.5-15.1,9.9-18.6,20.3c-4.2,12.5-4.2,18.5-4.4,24c-0.2,8.9,1.2,14.1,1.2,14.1s-6.1-11.3-6-27.8c0-11.8,1.9-22.5,7.4-33.1
		c4.8-9.3,11.9-14.9,18.3-15.5c6.6-0.7,11.7,2.5,15.7,5.9c4.2,3.6,8.5,11.4,8.5,11.4L251.4,0.9L251.4,0.9z"/>
	<path fill="#221B0A" d="M252.6,98.6c0,0-4.4,7.9-7.2,11c-2.8,3.1-7.7,8.5-13.8,11.2c-6.1,2.7-9.3,3.2-15.4,2.6
		c-6-0.6-11.7-4.1-13.6-5.5c-2-1.4-7-5.8-9.8-9.7c-2.9-4-7.3-12-7.3-12s2.5,8,4,11.4c0.9,2,3.6,8,7.5,13.2
		c3.6,4.9,10.7,13.3,21.4,15.1c10.7,1.9,18.1-2.9,19.9-4.1c1.8-1.2,5.7-4.4,8.1-7c2.5-2.7,4.9-6.2,6.3-8.2c1-1.5,2.6-4.6,2.6-4.6
		L252.6,98.6L252.6,98.6z"/>
</g>
</svg>
