<svg xmlns="http://www.w3.org/2000/svg" width="48" height="48" viewBox="0 0 48 48">
  <title>logo_white</title>
  <g opacity="0.8">
    <path d="M22.5632,1.7972a22.2492,22.2492,0,1,1-20.766,23.64,22.2492,22.2492,0,0,1,20.766-23.64M22.45.051A23.9991,23.9991,0,1,0,47.949,22.45,23.9991,23.9991,0,0,0,22.45.051Z" fill="#fff"/>
  </g>
  <g opacity="0.4">
    <path d="M22.6439,3.0446l-.0123.0008H22.629l-.0119.0007h-.0025l-.0111.0008h-.0016l-.0119.0007h-.0029l-.0121.0009h-.0013l-.0118.0008H22.56l-.0122.0008h-.0024l-.0122.0009h-.0015l-.0117.002h-.002l-.0123.0008h-.0021l-.025.0018h-.0024l-.0121.0008h-.0022l-.0117.0009h0l-.0124.0009h-.0023l-.012.0009h-.0022L22.41,3.06H22.408l-.0124.001h-.0022l-.0126.001H22.38l-.0123.0009h-.0018l-.0123.0009h-.002l-.0254.002h-.0018l-.0123.001H22.31l-.0125.001h0l-.0127.0011h-.002L22.27,3.07h-.0012l-.0123.0011h-.0009l-.0128.0011h-.0016l-.0128.0011h-.0006l-.0125.0011h-.0013l-.0124.0011H22.2l-.0254.0022H22.173l-.0128.0011h-.0011l-.0261.0023h-.0014l-.013.0012h-.0005l-.0266.0024H22.09l-.0265.0025h-.0006l-.0131.0012h-.001l-.0266.0025h-.0006l-.0131.0012h-.001l-.0262.0025H21.98l-.0132.0013h0l-.0271.0026H21.939l-.0406.004h0l-.0268.0028h-.0005l-.0133.0013h-.0006l-.027.0028h0l-.0408.0043h-.0006l-.0271.0029h0l-.0134.0014h0q-.98.1049-1.9286.2971h0l-.0793.0162h0l-.026.0054h0L19.7,3.4431h-.0008l-.0253.0053h-.0012L19.66,3.451h-.0011l-.0122.0025h0l-.012.0025h-.002L19.62,3.46h-.0017l-.01.0023-.0023.0005-.0114.0024-.0025.0005-.0115.0025h-.0013l-.0107.0022-.0024.0006-.0111.0023-.0031.0007-.01.0022H19.54l-.0107.0023L19.526,3.48l-.0105.0023-.0036.0008-.0083.0018L19.5,3.4856l-.01.0022-.0042.0009-.01.0022-.0036.0008-.0082.0018-.0037.0008-.01.0021-.0046.0011-.0087.0019-.0052.0011-.0067.0015-.0052.0012-.009.002-.0054.0012L19.4,3.5077l-.0088.0019-.0051.0012-.0061.0013-.0084.0019-.0061.0014-.0044.001-.0108.0024-.0035.0008-.0067.0015-.004.001-.0109.0024-.0034.0008-.0129.0029-.0017.0005L19.3,3.53h-.0013l-.0141.0033h-.0017L19.26,3.54h-.001l-.0151.0035h0l-.0575.0134.2965,1.2657a19.9127,19.9127,0,0,1,3.2459-.4806l-.084-1.2972ZM15.8605,4.6361l-.0032.0014-.0066.0027-.0047.0021-.0087.0036-.005.0021-.0068.0029-.0062.0026-.0063.0027-.0057.0024L15.8,4.6618l-.0051.0022-.0085.0036-.0048.0021-.0059.0025-.0074.0031-.0055.0024-.0055.0023-.0081.0035-.0056.0024-.0051.0022-.0083.0035-.0049.0021-.009.0039-.0043.0018-.0062.0027-.0049.0021-.0088.0038-.0041.002-.01.0044-.004.0017-.006.0026-.0039.0016-.01.0044-.0035.0015-.01.0043-.0042.0018-.01.0041-.0039.0018-.0062.0026-.0038.0017-.01.0044-.0025.001-.01.0044-.0034.0015-.0064.0028-.0041.0018-.01.0043-.003.0013-.0111.0049-.0028.0012-.0113.005-.0025.0011-.0065.0029-.0033.0014-.0105.0046-.0031.0014-.0115.005-.002.001-.021.0093-.0017.0007-.0125.0056-.0016.0007-.0353.0157-.0016.0008-.0134.006h0l-.0215.01h-.0011l-.0132.0059-.0011.0006-.0356.0161h-.0011l-.0357.0162h-.0007l-.0134.0061-.0011.0005-.1233.0567h0l-.0506.0236h0l-.0361.0169h0q-.13.0612-.26.1242h0l-.0357.0175h0l-.05.0244H14.73l-.0349.0172-.0013.0007-.013.0064-.0009.0005-.0211.01h0l-.0134.0067-.0012.0006-.021.01h0l-.0134.0066-.0021.0011-.0112.0056-.0025.0013-.0205.01H14.573l-.0129.0065-.0013.0007-.0208.01h0l-.0135.0068h-.0009l-.0132.0068H14.51l-.0207.01-.0014.0008L14.473,5.28l-.0014.0008-.0207.01H14.45l-.0127.0065-.002.001-.0117.0061-.0019.0009-.02.01-.0021.001-.0114.0059-.0022.0011-.02.01-.0016.0008-.0121.0062-.0017.0009-.0126.0065L14.337,5.35l-.0207.0108h-.001l-.0128.0067h-.0011l-.0207.0108h0l-.0132.0069-.0012.0006-.0126.0066-.0012.0006-.0205.0108-.0012.0006-.0125.0066-.0013.0007-.02.0107-.0021.0011-.0114.006-.0022.0012L14.17,5.438l-.0025.0013-.0063.0033-.0018.001-.0113.006-.0032.0017-.01.0054-.0028.0014-.0126.0068h-.0006l-.0063.0034L14.11,5.47l-.0107.0058-.0025.0013-.0114.0062-.0018.0009-.02.0107-.0024.0012-.011.0062-.0025.0014-.0194.01-.0033.0018-.01.0053-.0032.0018-.01.0053-.0032.0018-.0062.0034-.0013.0006L13.979,5.54l-.0026.0014-.01.0057-.0028.0015-.0194.0106-.0028.0015-.01.0057-.003.0016-.01.0055-.0032.0017-.0063.0035-.0013.0007-.0119.0065-.0022.0012-.0114.0063-.0018.001-.02.0108-.003.0017-.01.0056-.0028.0015-.01.0058-.0027.0015-.0062.0034-.0024.0014-.0105.0058-.0034.0018-.01.0054-.0032.0018-.0191.0106-.0033.0018-.01.0055-.0033.0018-.01.0054-.0033.0018-.0062.0035-.0023.0013-.01.0059-.0032.0018-.01.0054-.0033.0018-.006.0034-.001.0007-.0119.0066L13.69,5.7l-.01.0055-.0031.0018-.01.0058-.0027.0015-.0062.0035-.0024.0014-.01.0059-.0031.0018-.01.0056-.0029.0016-.0193.011-.0023.0013-.0109.0063-.0024.0013-.0109.0062-.0022.0013-.0063.0036-.0018.001-.0116.0066-.0015.0009-.0124.0071-.0008.0005-.02.0115-.0015.0009-.0124.0071h-.0006l-.0336.0194-.0014.0008-.0126.0074h0l-.02.0117-.0012.0007-.0124.0073H13.43l-.0337.02h-.0006l-.0336.02-.001.0007-.0127.0074h-.0006q-.2953.1742-.5848.3578L13.46,7.3518A19.63,19.63,0,0,1,16.3647,5.833L15.861,4.6345ZM9.9769,8.368q-.3359.3017-.6585.6174h0l-.01.0095h0L9.28,9.0233l-.0008.0008-.0091.009L9.27,9.0337l-.02.0188h0l-.0092.009-.0009.001-.0089.0088-.001.001-.009.0089H9.2205L9.212,9.09l-.0011.0011L9.2026,9.1l-.002.002-.0081.008-.0017.0016-.0077.0077-.0018.0018-.0076.0075L9.1719,9.13l-.0078.0078L9.1616,9.14l-.0077.0077L9.1518,9.15l-.0068.0067L9.1423,9.16l-.0069.0068L9.1328,9.17l-.0074.0074L9.1227,9.18l-.0074.0073L9.1127,9.19l-.0057.0056-.0037.0038-.006.0061-.0034.0034-.0068.0069-.0032.0032-.0063.0064-.0037.0036-.0052.0053-.0041.0043-.0058.0058-.0037.0037-.0064.0065-.0039.004L9.04,9.2627l-.0059.0059-.0035.0036-.0067.0068L9.02,9.2825l-.0045.0047-.0038.0038-.0064.0066-.0034.0035-.0068.0068-.0033.0035-.0068.0069-.0034.0035-.0046.0047-.003.0031-.0075.0077-.002.0027-.0082.0084-.002.002-.0155.016-.0016.0017-.0088.009-.002.0021-.0089.0091L8.9166,9.39l-.0158.0163L8.9,9.407l-.01.01-.0007.0007-.027.028h0q-.6751.7026-1.2837,1.4655l1.0164.8106a19.8762,19.8762,0,0,1,2.2507-2.387l-.8687-.967ZM5.6327,13.8157a20.9448,20.9448,0,0,0-1.4374,3.1866l1.2255.4337A19.7114,19.7114,0,0,1,6.769,14.4472ZM3.31,20.384q-.0756.4348-.1332.8754h0l-.0052.04v.0012l-.002.0155h0l-.0031.024v.001l-.002.0156h0l-.001.0081h0l-.0019.0151v.0019l-.0019.0147v.0006l-.0028.0235v.0018l-.0028.0233h0l-.0017.0147v.0025l-.0017.0137v.0015l-.0009.0076v.0021l-.0016.0129v.003l-.0016.0131v.0021l-.0008.0071v.0033l-.0014.0119v.0034l-.0014.0122V21.56l-.0008.0072V21.57l-.0014.0121v.0034L3.1347,21.6v.0015l-.0008.0071v.0035l-.0013.0114v.004L3.13,21.65v.0024l-.0015.013v.0024l-.0025.0228v.0029l-.0014.0125v.0029l-.0025.0226v.0027l-.0013.0123v.0032l-.0008.0071h0l-.0016.0146v.0034l-.0013.012V21.79l-.0023.0223v.0033l-.0012.0122V21.83l-.0023.0223v.0037l-.0011.0113v.004l-.0007.0068v.0032l-.0012.0118v.0038l-.0011.0115v.0035l-.0006.0069L3.1,21.924l-.001.01v.0041l-.001.01v.0048l-.0006.0065v.0043l-.0011.0109v.0038l-.0011.0116v.0033l-.0006.0072v.0032l-.0011.0114V22.02l-.001.0105v.0044l-.0006.0068v.0039l-.001.0113V22.06l-.001.0115v.0037l-.0006.0067v.0046l-.0009.0106v.0039l-.001.0109v.0045l-.0005.0064v.0048l-.0008.01v.0048l-.0007.0079-.0006.0069-.0006.0066v.0047l-.0009.01v.0048l-.0008.01v.0052l-.0005.0065V22.21l-.0009.01v.0045l-.0007.0082-.0006.0067-.0005.0065v.0048l-.0008.01v.005l-.0006.0062-.0007.0088,0,.0061v.0052l-.0008.01v.0113l-.0007.0085v.0117l-.0007.0089-.0005.006v.0059l-.0006.0089v.0115l-.0007.0086L3.06,22.39v.0055l-.0007.0094v.012l0,.0075v.0124l-.0007.0091v.0057l-.0005.006,0,.0073v.0126l-.0007.01v.0053l-.0005.0066,0,.0068v.0132l-.0006.0087v.0188l-.0006.0081V22.56l-.0007.01v.0048l-.0005.0072v.0054l-.0006.009v.0051l-.0007.01v.0038l-.0006.008v.0042l-.0007.01v.0044l-.0006.01v.0038l0,.0087v.0034l-.0007.0109v.0038l-.0007.0109v.0028l0,.0093v.0035l-.0007.0109v.0036l-.0007.0111v.0026l-.0006.01v.0032l-.0006.0109v.0039l-.0007.0111v.0019l-.0006.01v.0032l-.0007.0114v.0027l-.0007.0118v.0016l-.0006.0111v.0022l-.0007.012v.0023l-.0006.0123h0l-.0006.0119v.0024l-.0006.0119v.0022l-.0012.0251v.0018l-.0007.0124v.0017l-.0013.0256v.0014l-.0006.0129v.0008l-.0013.0266v.0007l-.0019.0409h0q-.0294.4128-.032.8291l1.3.0069a19.7384,19.7384,0,0,1,.29-3.2664Zm1.2426,6.7623-1.2835.206q.0917.5714.2133,1.1311h0l.0086.04v.0013l.0033.0146V28.54l.005.0228.0006.0026.0029.0132v.0019l.005.0225.0006.0026.0029.0129.0005.0022.0016.0073.0005.0022.0029.0127.0007.0032.0025.0113.0009.004.0015.0066.0009.0037.0025.0109.0009.0043.0022.01.0012.005.0014.0062.0016.0071.0016.007.0014.0059.0018.0078.0015.0065.0013.0055.002.0091.0013.0052.0014.0062.0014.0061.0019.0082.0012.0049.0022.0095.0011.0047.0016.0069.0013.0058.002.0084.0011.0047.0023.01.0011.0046.0016.0071.0011.0044.0022.0095.0011.0048.0023.01.001.0043.0019.0077.0009.0038.0024.01.001.004.0024.01.0009.0034.0021.0089.0007.0028.0025.0107.0009.0035.0025.0106.0008.0033.0022.0088.0007.0031.0026.0108.0008.0033L3.6,28.998,3.601,29l.0025.01v.0019l.0028.0112.0007.003.0028.0114v.0015l.0027.0112v.0015l.0028.0115.0007.0026.0028.0114v.0018l.0027.0111v.0013l.003.0119v.0019l.003.0122v.0006l.003.0122v.0009l.0031.0123v.0013l.0032.0125h0l.0064.0256v.0013l.01.0389h0l.01.0393h0q.1941.753.4411,1.4825L5.34,30.3292A19.6878,19.6878,0,0,1,4.5526,27.1463ZM6.6468,33.335l-1.1444.6166.0007.0012.0049.0091.0015.0029.0053.01.0015.0027.0053.01.0014.0026.0044.0081.0016.0029.0051.0093.0018.0035.005.0092.0019.0034.0043.0079.0024.0044.0039.0072.0022.004.0047.0087.0022.004.0048.0088.0021.0038.0038.0069.0023.0041.0043.0079.0024.0044.0045.0082.0025.0045.0035.0064.0036.0065.0029.0054.0033.0059.0038.0068.0028.0051.004.0072.0031.0056.0027.0049.0042.0076.0027.005.0029.0051.0043.0077.0028.005.0033.0061.0038.0067.0027.005.0044.0078.0027.0048.0031.0055.0029.0052.0043.0079.0022.0038.0049.0087.0022.004.005.0088.0022.0041.0033.0058.002.0035.0054.01.0019.0034.0052.0092.0021.0038.0109.0193.0008.0014.0068.0121.0009.0014.0073.0129h0l.0114.02.0008.0013.007.0124.0006.0011.0194.0339h0A20.968,20.968,0,0,0,7.4115,36.88l1.0261-.7981a19.7154,19.7154,0,0,1-1.7908-2.747Zm4.0127,5.16-.88.9566q.6511.599,1.3506,1.142h0l.0117.009.0007.0006.0182.0141.0013.001.01.0081.0019.0015.01.0076.0021.0016.0175.0135.0029.0022.0083.0063.0034.0027.0079.0061.0039.003.0049.0037.0051.0039.0066.0051.0042.0032.0067.0051.005.0038.0045.0035.007.0053.0043.0033.0069.0052.0045.0034.0055.0042.0047.0036.0067.0051.0034.0026.0081.0062.0033.0024.0076.0058.0038.0029.0065.0049.0034.0026.0078.0058.0032.0024.0084.0064.0028.0021.0082.0062.0029.0021.0076.0058.0021.0015.0089.0067.0026.002.0089.0067.0021.0015.0091.0068.0016.0012.0086.0065.002.0015.0092.0069.0022.0016.0092.0069.0018.0013.01.0071h0l.01.0074.0015.0011.01.0072.0016.0012.01.0073.0009.0006.0211.0157h0l.0107.0079h0q.4947.3655,1.0108.7023l.71-1.0888a19.8861,19.8861,0,0,1-2.59-2.0138Zm5.476,3.5711-.52,1.1915a20.89,20.89,0,0,0,2.3215.8532h.0006l.0144.0043h.0009l.0223.0066.0018.0006.0127.0038.0025.0007.0117.0035.0031.0009.0067.0021.003.0008.0112.0034.004.0011.0095.0028.0049.0015.0059.0018.0085.0025.0054.0016.0061.0017.0078.0023.0059.0018.0051.0015.009.0039.0048.0014.0094.0028.0041.0012.0077.0022.0037.0011.01.0028.0041.0013.01.0029.0037.001.01.0028.0026.0007.01.003.0027.0007.0111.0032.0024.0007.0115.0033h.0013l.0116.0034h.0009l.012.0034.0018.0006.0121.0034h.0008l.0256.0073h0l.0127.0036h.0007q.3171.09.6378.1693l.3137-1.2615a19.6376,19.6376,0,0,1-3.1037-1.0549Zm6.34,1.5764-.0988,1.2962q.4662.0356.9373.05h.0008l.0234.0007H23.34l.0237.0007h.01l.0219.0006h.9851l.0226,0h.0119l.0222-.0005h.0367l.0223-.0005h.036l.0222-.0007h.012l.0222-.0006h.094l.022-.0007h.04l.0218-.0008h.0371l.022-.0009h.036l.0218-.001h.0724l.0106,0h.0242l.0105-.0005h.0255l.0092-.0005H25.05l.01,0h.0138l.021-.0011h.0138l.01-.0006h.0245l.01-.0006h.0141l.01-.0005H25.18l.008-.0005h.0035l.0083,0h.0022l.01-.0006h.014l.01-.0007H25.24l.0087-.0005h.0033l.0081-.0005h.0027l.01-.0007h.003l.0079-.0005h.003l.01-.0006h.0014l.0091-.0006h.0035l.0081-.0006h.0023l.0105-.0007h.0025l.0083-.0005h.003l.01-.0007h.1477l.006-.0005h.0015l.0066,0h.0014l.047-.0034h0l.0076-.0005h.0091l.0059-.0005h.0185l.0057,0h.0105l.0064-.0005h.0019l.006-.0005h.065c.0569-.0046.113-.0094.17-.0144l-.1153-1.2949q-.2418.0216-.4855.0374a19.9545,19.9545,0,0,1-2.7965-.0153Zm9.606-1.6712a19.606,19.606,0,0,1-3.0915,1.09l.3277,1.258a20.8478,20.8478,0,0,0,3.2972-1.1616l-.5333-1.1856Zm5.4308-3.6358a19.8042,19.8042,0,0,1-2.564,2.0454l.7234,1.08q.2163-.1449.4288-.295h.0007l.0106-.0076.0007,0,.0212-.015.0011-.0008.01-.007.0019-.0013.01-.007.0014-.0009.0091-.0065.0015-.0011.0093-.0066.002-.0016.0089-.0064.003-.0021.0087-.0063.0027-.0018.0069-.005.0035-.0024.008-.0059.0035-.0025.0083-.0059.0034-.0024.0069-.005.0046-.0033.0058-.0042.0042-.003.0073-.0053.0048-.0034.0053-.0038.0066-.0048.0042-.0031.008-.0058.0034-.0024.01-.0074.0017-.0013.0057-.0041.0025-.0018.01-.007.0025-.0018.01-.0075.0015-.0011L36.36,40.98l.0015-.0011.0111-.0081.0011-.0008.076-.0558h0a21.0735,21.0735,0,0,0,1.9542-1.6326l-.8922-.9454Zm3.95-5.2106a19.82,19.82,0,0,1-1.7581,2.7692L40.74,36.68a21.0815,21.0815,0,0,0,1.5215-2.3064h0l.0076-.0134h0l.0194-.0342h0l.0077-.0136h0l.0116-.02v-.0008l.0067-.0121.0014-.0025.0058-.01.0017-.0029.0062-.0112.001-.0018.0034-.0061.0019-.0032.0054-.01.0018-.0032.0055-.01.0017-.0031.0033-.006.0032-.0058.0039-.007.0023-.0041.0048-.0086L42.37,34.18l.0046-.0082.0025-.0046.0031-.0055.0042-.0076.0027-.0049.0029-.0052.0041-.0074.0028-.0051.0026-.0048.0043-.0078.0029-.0052.0035-.0065.0033-.0059.0032-.0058.0034-.0061.0035-.0064.0024-.0044.0046-.0084.0023-.0044.0045-.0081.0021-.0039.004-.0073.0017-.003.005-.0093.0019-.0035.0049-.009.002-.0036.0045-.0084.002-.0036.0044-.008.0015-.0029.0053-.01.0015-.0028.0053-.01.0014-.0025.0055-.01h0l.0058-.0108.001-.0019.0056-.0105.001-.0018.0058-.0107.0006-.0012.0121-.0226.0007-.0013.006-.0112.0005-.001.02-.0367v-.0007l.0062-.0117h0l.0575-.109-1.1516-.6032Zm2.025-6.2116a19.5976,19.5976,0,0,1-.7513,3.1905l1.2359.403q.0651-.2.1263-.4008h0l.0076-.025V30.08l.0037-.012v-.0012l.0074-.0244v-.0014l.0035-.0117.0005-.0018.0035-.0115v-.0017l.0031-.0105.0006-.0019.0032-.0109.001-.0031.0031-.0105.0008-.0029.0028-.0092.0007-.0026.003-.01.0012-.0039.0029-.01.0011-.0038.0026-.0086.0012-.0042.0024-.0084.0013-.0042L44.16,29.9l.0014-.0048.002-.0066.0022-.0074.0016-.0058.0015-.0051.0025-.0087.0017-.0057.0017-.006.0024-.0081.0014-.0049.0026-.0088.0015-.0053.0017-.006.0017-.0058.0024-.0084.0012-.0043.0031-.0107.0009-.0031L44.2,29.763l.0007-.0025.0036-.0123.0006-.0024.0063-.0222V29.723l.0041-.0144v-.0011q.1069-.3789.2-.7628h0l.0093-.0388v-.001l.0036-.0147h0l.0092-.0389h0l.009-.0382.0005-.002.0033-.0143h0l.0053-.0229v-.0015l.0031-.0135V28.757l.0051-.0221.0007-.0028.0027-.0118.0008-.0033.0031-.0137v-.0009l.0016-.0068.001-.0043.0022-.01.001-.0044.0022-.01.0011-.0048.0015-.0064.001-.0047.0023-.01.001-.0045.002-.0091.0013-.0055.0013-.0061.0015-.0066.0018-.0078.0011-.005.0019-.0085.0013-.006.0013-.0056.0019-.0088.0012-.0054.0015-.0067.0015-.0069.0016-.0068.0011-.0051.002-.0094.0011-.0048.0017-.0075.0014-.0064.0015-.0071.001-.0043.0021-.01.001-.0044.0021-.01.0009-.0038.0017-.0081.0008-.0038.0022-.01.0009-.0039.0022-.0105.0007-.0032.002-.0094.0006-.0025.0022-.0106.0009-.0038.0022-.01L44.54,28.39l.0021-.01.0006-.0026.0023-.0106.0005-.0025.0023-.0112.0007-.0029.0024-.0115v-.0011l.0024-.0115v-.0016l.0025-.0119V28.31l.0025-.0119v-.0016l.0023-.0113V28.284l.0025-.0119V28.27l.0025-.012v-.0014l.0052-.0251V28.23l.0025-.0124v-.001l.0053-.0259V28.19l.0026-.0131h0l.008-.04h0q.1023-.5112.18-1.03l-1.2859-.1909Zm1.1559-6.7764-1.278.2375a20.0169,20.0169,0,0,1,.2932,2.3531q.03.4581.0382.9127l1.3-.0249V23.564q-.0081-.3744-.0294-.751h0l-.0019-.0336v-.0513l-.001-.0164v-.06l-.0005-.0081h0l-.0006-.0092v-.0412l-.0006-.009v-.0029l-.0005-.0065v-.0412l-.0006-.009v-.0128l-.0005-.0061v-.0225l-.0006-.0079v-.0032l-.0005-.0069v-.0319l-.02-.0064v-.0027l-.0006-.009v-.0226l-.0005-.0056v-.0127l-.0006-.0082v-.0013l-.0007-.0092v-.0029l-.0005-.0063v-.0318l-.0007-.0092h0l-.0007-.009v-.0032l0-.0059v-.004l-.0005-.0056v-.0034l-.0005-.0061v-.0034l-.0006-.0074v-.0017l-.0008-.0093v-.0022l-.0007-.0074v-.0025l0-.0068v-.003l-.0005-.0064v-.0125l-.0008-.009h0l-.0008-.0094v-.0028l-.0006-.0064v-.0033l0-.0061v-.0126l-.0006-.0071v-.0024l-.0009-.0094h0l-.0008-.0091v-.0023l-.0006-.0073V22.116l-.0006-.0069v-.0026l-.0007-.0073v-.0021l-.0008-.009h0l-.0009-.01v-.0018l-.0007-.0076v-.0025L44.91,22.059v-.0029l-.0006-.0065v-.0031l-.0006-.0072v-.0018l-.0018-.019v-.0022l-.0007-.0069v-.0032L44.9039,22v-.0029L44.903,21.99v-.0025l-.0008-.0082v-.0011l-.0022-.019v-.0017l-.0008-.0076v-.0026l-.0007-.0069V21.938l-.0007-.0073v-.0023L44.896,21.91v-.0006l-.0009-.009v-.0015l-.0008-.0075v-.0027l-.0007-.0072v-.002l-.0009-.0086v0l-.002-.0192V21.849l-.0009-.008v-.0018l-.0008-.0078V21.83l-.0009-.0079V21.82l-.003-.0285V21.79l-.0008-.0076V21.78l-.0008-.0072V21.77l-.0009-.0082v-.0011l-.0021-.0193v-.0005l-.001-.0088V21.73l-.0008-.0072v-.0024l-.0007-.0073v-.0022l-.0031-.0283v-.0017l-.0008-.0075v-.0024l-.0008-.0075v-.0018l-.0009-.0079v-.0016l-.0032-.0285v-.0018l-.0008-.0076v-.0021l-.0009-.0078v-.0014l-.001-.0088v-.0007l-.0033-.029v-.0008l-.001-.0085V21.554l-.001-.0082v-.0012l-.0011-.0095h0l-.0023-.0193v-.001l-.001-.0085V21.505l-.0009-.0082v-.0017l-.0011-.0084v-.0008l-.0035-.0287v-.0018l-.0009-.0076v-.0021l-.0009-.0074v-.002l-.0011-.0086v-.0006l-.0023-.0191v-.0016l-.001-.0076v-.0026L44.837,21.39v-.0028l-.0008-.0066v-.0027l-.0011-.0083v-.0008L44.832,21.35v-.0022l-.0009-.007v-.0027l-.0009-.007v-.0023l-.001-.0075V21.32l-.0024-.019V21.3l-.0011-.0083v-.0021l-.0009-.0072V21.28l-.001-.0072V21.27l-.001-.0075v-.0019l-.0024-.0185V21.24l-.0009-.0067V21.23l-.0008-.0057-.0005-.004-.0007-.0053-.0005-.0036-.0009-.0066v-.0025l-.0012-.0091v-.0017l-.001-.0073L44.81,21.18l-.0008-.006v-.0031l-.0008-.006v-.0035l-.0008-.0059v-.0033l-.0009-.0064-.0005-.0033-.0011-.0084v-.003l-.0008-.0059-.0006-.0041-.0007-.0051,0-.0039L44.8,21.1072l-.0006-.004-.0007-.0053v-.0038l-.0009-.0061-.0009-.0066-.0007-.0049-.0006-.0046-.0006-.0043-.0008-.0051,0-.0039-.0007-.0048-.0006-.0042-.0007-.005-.0006-.0045-.0006-.0042-.0006-.0042-.0014-.01v-.0033l-.0008-.0055V21.01l-.0008-.0055-.0005-.0035-.0008-.0054v-.003l-.0009-.0062v-.0006l-.0022-.0156h0l-.001-.0066v-.0021l-.0009-.0065v-.0022l-.001-.0067v-.0018l-.001-.0069v-.001l-.0047-.0316v-.0009l-.0011-.0074V20.895l-.0011-.0077h0l-.0074-.0492h0q-.0534-.3525-.118-.7Zm-2.397-6.5417-1.1288.6448a19.6215,19.6215,0,0,1,1.3818,2.9724l1.2206-.4472-.0007-.0019-.0039-.01-.0008-.0022-.0036-.01L43.71,16.739l-.0041-.0112-.0008-.0022-.0042-.0114v-.0014l-.0043-.0117h0l-.0044-.0119-.0006-.0015-.0044-.0118v-.0012L43.678,16.65h0l-.0046-.0122v-.0012a20.8573,20.8573,0,0,0-1.4255-3.04Zm-4.4115-5.393-.8565.9779a19.866,19.866,0,0,1,2.2807,2.3583l1.0061-.8232q-.4986-.6094-1.0407-1.1793h0l-.0092-.01h0l-.0182-.0191-.0009-.0009-.0085-.009-.0012-.0012-.0086-.0089-.0008-.001L39.168,9.477l-.0006-.0007-.0084-.0087-.0016-.0018-.0081-.0084-.0017-.0018L39.14,9.4472l-.0014-.0015-.0073-.0075L39.13,9.4364l-.0076-.0079-.0026-.0026-.0072-.0075-.0028-.0029-.006-.0063L39.1,9.4054,39.0937,9.4l-.0031-.0032L39.084,9.39l-.004-.0039-.0065-.0068L39.07,9.3757l-.0046-.0047L39.06,9.3653l-.004-.0043-.0039-.0041-.0063-.0064-.004-.0042-.0041-.0041-.0063-.0066-.003-.0029-.0075-.0077-.0027-.0028-.015-.0154-.0027-.0027-.008-.0082-.002-.002-.0088-.0089L38.98,9.2832l-.0157-.016-.0015-.0015-.0092-.0094-.0012-.0012-.0272-.0274h0q-.5272-.5322-1.09-1.0252ZM31.9066,4.5409l-.49,1.2039A19.7465,19.7465,0,0,1,34.34,7.2305l.6833-1.1059c-.1292-.08-.2587-.1579-.39-.2351h0l-.0124-.0073-.0015-.0009-.02-.0115-.0019-.0011-.0106-.0062-.0031-.0018-.01-.0057-.003-.0018L34.5651,5.85l-.0017-.001-.0111-.0065L34.5489,5.84,34.54,5.8349l-.0042-.0024-.0078-.0046-.0049-.0028-.0052-.003-.0073-.0043-.0052-.0029L34.5,5.8118l-.0065-.0037-.006-.0035-.0042-.0024-.0083-.0048-.0044-.0025-.0071-.0041-.0051-.003-.0065-.0037-.0045-.0026L34.44,5.7771l-.0038-.0022-.009-.0049-.0033-.0019-.0084-.0048-.0035-.002-.008-.0046-.0026-.0015L34.392,5.75l-.0031-.0018-.01-.0054-.0024-.0014-.0091-.0052-.0023-.0012L34.356,5.73l-.0028-.0015-.01-.0054L34.34,5.7212l-.01-.0056,0-.0012-.01-.0054-.0017-.001-.01-.0056-.0024-.0014-.01-.0056-.0021-.0012-.01-.0058-.0011-.0007-.01-.0053-.0022-.0013-.01-.0058-.0019-.001-.01-.0058-.0015-.0009-.0219-.0122-.0015-.0009-.0107-.006-.0014-.0007L34.2,5.6416H34.2l-.0112-.0063h0l-.0112-.0061-.0011-.0006-.0113-.0063h0l-.0237-.0131h0l-.0116-.0064h-.0008l-.0115-.0064h0l-.0235-.013H34.093l-.0113-.0062-.001-.0006-.0353-.0192h0L34.0331,5.55h0L34.01,5.5372h0L33.9971,5.53h0l-.0838-.0451h0l-.0476-.0255H33.865l-.0357-.019h0l-.012-.0064h0l-.025-.014h0l-.0118-.0063H33.78l-.0119-.0062h0l-.024-.0126h0l-.0119-.0062h0L33.6959,5.37h-.0007l-.0117-.0061h0l-.024-.0125h0l-.0116-.006h-.001l-.0115-.006h0l-.0236-.0122H33.611L33.5991,5.32l-.0013-.0006-.0114-.006h0l-.0115-.0059h-.0008l-.011-.0057L33.5613,5.3l-.0108-.0055-.0017-.0009-.0222-.0114-.0017-.0008-.01-.0053-.0023-.0012-.01-.0053-.002-.001-.01-.0052H33.49l-.0108-.0055-.0021-.0011-.01-.0052L33.4634,5.25l-.0106-.0054-.0014-.0006-.01-.0051L33.44,5.2383,33.43,5.233l-.0022-.0011-.01-.0053-.0022-.0011-.01-.0051-.0026,0-.01-.0049-.0022-.001-.01-.0052-.0025-.0012-.01-.0052-.002-.0009-.0093-.0048-.0022-.001-.01-.0049-.003-.0015-.01-.0049-.0031-.0015-.01-.0048-.0025-.0012-.0083-.0042-.0032-.0016-.0094-.0046-.0033-.0017-.01-.0047-.0031-.0016L33.27,5.1538l-.0032-.0016-.0085-.0041-.0032-.0016-.0094-.0046L33.2424,5.14l-.0092-.0046L33.23,5.1337,33.2223,5.13l-.0046-.0023L33.21,5.1242l-.0046-.0022-.0086-.0042-.0042-.0021-.0073-.0035L33.18,5.11l-.0063-.0031-.0046-.0022L33.1609,5.1l-.005-.0024-.0082-.0039-.0046-.0023-.006-.0029L33.13,5.0852l-.0053-.0026L33.1194,5.08l-.0077-.0037-.0058-.0028-.0043-.0021-.0089-.0042-.0042-.0021L33.08,5.0613l-.0052-.0025L33.07,5.0562l-.0077-.0037L33.0565,5.05l-.005-.0024-.0082-.0039-.0045-.0022-.0077-.0037-.0057-.0027L33.02,5.0324,33.015,5.03l-.0085-.004-.0041-.0019-.009-.0043-.0041-.002-.0081-.0038-.0053-.0025L32.97,5.0087l-.0041-.0019-.01-.0046-.0034-.0015-.01-.0047L32.94,4.9943l-.02-.0094-.0028-.0012-.011-.0052-.0025-.0012-.0128-.0059H32.89l-.007-.0032-.001-.0005L32.87,4.9618l-.0019-.0009-.0118-.0055-.0022-.0011-.0206-.01H32.832l-.0131-.0061H32.818l-.0137-.0064h0l-.0214-.01h0l-.0137-.0062H32.768q-.4253-.1958-.8609-.3732Zm-6.8007-1.513L25.039,4.3261a19.669,19.669,0,0,1,3.2486.4412L28.57,3.4984q-.3033-.0675-.61-.126h0l-.04-.0076h0l-.0393-.0074H27.88l-.039-.0074H27.84l-.0126-.0023h-.0007l-.0126-.0023h0l-.0125-.0023H27.8L27.7869,3.34h-.0008l-.0123-.0022h-.0007l-.0123-.0022H27.759l-.012-.0022h-.0014l-.012-.0022H27.733l-.0119-.0021-.0024-.0005-.0118-.0021h-.0014l-.0119-.0021h-.0007l-.0123-.0021h-.0017L27.6667,3.32h-.0013l-.0123-.0022h0l-.0123-.0021h-.0019l-.012-.0021h-.0016l-.0117-.002h-.0009L27.6,3.3068h-.0019l-.0118-.0021h-.002l-.0118-.002h0L27.5605,3.3h-.0023l-.0118-.002h-.0017l-.0118-.002h-.0007L27.52,3.294h-.0026l-.0113-.0019L27.5039,3.29l-.0111-.0018h-.0009l-.0119-.002h-.0022l-.0118-.002h-.0018l-.0123-.0021h0L27.44,3.28h-.0016l-.0121-.002H27.424L27.4,3.2741h-.0021l-.012-.0019h-.0016l-.0248-.0041h-.0018l-.012-.0019h-.0018L27.3186,3.26h-.0018l-.012-.0019h-.0019l-.0123-.0019h0l-.0122-.0019h-.0016l-.012-.0019h-.002l-.0248-.0039h-.0016l-.0122-.0019h-.0015l-.0253-.0039h-.0013l-.0123-.0018h-.0016l-.0259-.0039h0l-.0131-.002h-.0008l-.0264-.004h0l-.0131-.002h-.0007l-.0263-.0039h0l-.0132-.002h0l-.04-.0059h0l-.04-.0058h0q-.8175-.1164-1.6529-.1686h0L25.3134,3.04h-.0005l-.0267-.0017h-.001l-.013-.0008h-.0011l-.0259-.0015h-.0018l-.0122-.0007h-.0021l-.0123-.0007h-.0006l-.012-.0007h-.0025L25.19,3.0324h-.0024l-.0119-.0006h-.0013l-.0109-.0006H25.16l-.011-.0006h-.0038l-.01-.0005h-.0172l-.01-.0005Z" fill="#fff"/>
  </g>
  <path d="M22.8188,16.3457a1.4128,1.4128,0,0,1,.53.9521L25.4,30.1585a1.3058,1.3058,0,0,1-.1959,1.0108,1.2457,1.2457,0,0,1-.8567.4929,1.177,1.177,0,0,1-.9468-.2049,1.3636,1.3636,0,0,1-.4783-.9036l-1.4276-8.9506-2.577,7.5843a2.19,2.19,0,0,1-.4524.7965,1.1739,1.1739,0,0,1-.68.3415,1.2185,1.2185,0,0,1-.7513-.1021,2.0343,2.0343,0,0,1-.68-.6273L11.541,23.3011l1.4108,8.8421A1.2579,1.2579,0,0,1,10.975,33.44a1.3578,1.3578,0,0,1-.4783-.9046L8.4457,19.6743a1.4241,1.4241,0,0,1,.1981-1.0667,1.2805,1.2805,0,0,1,.9058-.5352,1.482,1.482,0,0,1,1.4735.7237l6.2891,8.42L20.6478,17.26a1.4535,1.4535,0,0,1,1.132-1.138A1.32,1.32,0,0,1,22.8188,16.3457Z" fill="#fff"/>
  <path d="M30.4678,30.2964a7.0165,7.0165,0,0,1-2.6149-.8191,1.3351,1.3351,0,0,1-.5206-1.7992A.8143.8143,0,0,1,27.92,27.24a1.78,1.78,0,0,1,.9391.1613,6.5686,6.5686,0,0,0,2.1108.6659,7.98,7.98,0,0,0,2.3087-.0565,4.492,4.492,0,0,0,2.3443-.9424,1.8368,1.8368,0,0,0,.5892-1.7535,1.41,1.41,0,0,0-.9959-1.1441,10.6546,10.6546,0,0,0-2.777-.4368,15.8265,15.8265,0,0,1-3.2581-.46A4.4327,4.4327,0,0,1,27.156,22.17a3.64,3.64,0,0,1-.952-2.0541,4.0887,4.0887,0,0,1,.3763-2.5324,5.0647,5.0647,0,0,1,1.8522-2A7.6083,7.6083,0,0,1,31.39,14.4994a7.6814,7.6814,0,0,1,5.3251.8434,1.6761,1.6761,0,0,1,.4763.4036,1.371,1.371,0,0,1,.0667,1.3931.8148.8148,0,0,1-.5881.4393,1.2158,1.2158,0,0,1-.4121-.0017,3.2024,3.2024,0,0,1-.5271-.1607,7.453,7.453,0,0,0-1.8805-.6915,5.9187,5.9187,0,0,0-2.1031.0128,4.0731,4.0731,0,0,0-2.2408.97,1.935,1.935,0,0,0-.5921,1.7987,1.5393,1.5393,0,0,0,.978,1.247,9.0125,9.0125,0,0,0,2.727.4782,17.7327,17.7327,0,0,1,3.2936.466,4.7187,4.7187,0,0,1,2.0632,1.0633,3.31,3.31,0,0,1,.9695,1.9619,3.9945,3.9945,0,0,1-.37,2.4988,4.9532,4.9532,0,0,1-1.8509,1.9438,8.0289,8.0289,0,0,1-3.0258,1.0726A11.119,11.119,0,0,1,30.4678,30.2964Z" fill="#fff"/>
</svg>
